<mxfile host="app.diagrams.net" modified="2024-05-05T23:16:35.502Z" agent="Mozilla/5.0 (Windows NT 10.0; Win64; x64) AppleWebKit/537.36 (KHTML, like Gecko) Chrome/124.0.0.0 Safari/537.36" etag="xQPaakv4x4Ulm7WwGv81" version="24.3.1" type="device">
  <diagram name="Page-1" id="0vUhpaGqzBqjff_STEJA">
    <mxGraphModel dx="2643" dy="2023" grid="1" gridSize="10" guides="1" tooltips="1" connect="1" arrows="1" fold="1" page="1" pageScale="1" pageWidth="850" pageHeight="1100" math="0" shadow="0">
      <root>
        <mxCell id="0" />
        <mxCell id="1" parent="0" />
        <mxCell id="iL5BSdvAr6qhL1e1kEn7-2" value="&lt;span style=&quot;font-size: 20px;&quot;&gt;&lt;b&gt;Cookie Popup&lt;/b&gt;&lt;/span&gt;" style="text;html=1;align=center;verticalAlign=middle;resizable=0;points=[];autosize=1;strokeColor=none;fillColor=none;" vertex="1" parent="1">
          <mxGeometry x="360" y="-690" width="160" height="40" as="geometry" />
        </mxCell>
        <mxCell id="iL5BSdvAr6qhL1e1kEn7-3" value="" style="rounded=0;whiteSpace=wrap;html=1;" vertex="1" parent="1">
          <mxGeometry x="40" y="-590" width="770" height="430" as="geometry" />
        </mxCell>
        <mxCell id="iL5BSdvAr6qhL1e1kEn7-4" value="&lt;font style=&quot;font-size: 49px;&quot; color=&quot;#990000&quot;&gt;PAGE CONTENT&lt;/font&gt;" style="text;html=1;align=center;verticalAlign=middle;resizable=0;points=[];autosize=1;strokeColor=none;fillColor=none;rotation=34;" vertex="1" parent="1">
          <mxGeometry x="220" y="-420" width="410" height="70" as="geometry" />
        </mxCell>
        <mxCell id="iL5BSdvAr6qhL1e1kEn7-6" value="" style="rounded=0;whiteSpace=wrap;html=1;fillStyle=auto;fillColor=#000000;glass=0;opacity=50;" vertex="1" parent="1">
          <mxGeometry x="40" y="-590" width="770" height="430" as="geometry" />
        </mxCell>
        <mxCell id="iL5BSdvAr6qhL1e1kEn7-7" value="" style="rounded=1;whiteSpace=wrap;html=1;" vertex="1" parent="1">
          <mxGeometry x="230" y="-470" width="420" height="160" as="geometry" />
        </mxCell>
        <mxCell id="iL5BSdvAr6qhL1e1kEn7-9" value="&lt;span style=&quot;background-color: rgb(255, 255, 255);&quot;&gt;&lt;font face=&quot;Helvetica&quot; style=&quot;font-size: 12px;&quot;&gt;We just wanted to let you know that this website uses cookies to enhance your browsing experience.&lt;/font&gt;&lt;/span&gt;" style="text;html=1;align=left;verticalAlign=middle;whiteSpace=wrap;rounded=0;" vertex="1" parent="1">
          <mxGeometry x="250" y="-405" width="400" height="30" as="geometry" />
        </mxCell>
        <mxCell id="iL5BSdvAr6qhL1e1kEn7-10" value="I&#39;m fine with that" style="rounded=1;whiteSpace=wrap;html=1;" vertex="1" parent="1">
          <mxGeometry x="365" y="-370" width="120" height="40" as="geometry" />
        </mxCell>
        <mxCell id="iL5BSdvAr6qhL1e1kEn7-14" value="&lt;span style=&quot;text-align: left; background-color: rgb(255, 255, 255);&quot;&gt;&lt;font style=&quot;font-size: 17px;&quot;&gt;Hey there!&lt;/font&gt;&lt;/span&gt;" style="text;html=1;align=center;verticalAlign=middle;whiteSpace=wrap;rounded=0;" vertex="1" parent="1">
          <mxGeometry x="220" y="-440" width="170" height="30" as="geometry" />
        </mxCell>
        <mxCell id="iL5BSdvAr6qhL1e1kEn7-16" style="edgeStyle=orthogonalEdgeStyle;rounded=0;orthogonalLoop=1;jettySize=auto;html=1;strokeWidth=3;" edge="1" parent="1" source="iL5BSdvAr6qhL1e1kEn7-15">
          <mxGeometry relative="1" as="geometry">
            <mxPoint x="564.5" y="-440.5" as="targetPoint" />
          </mxGeometry>
        </mxCell>
        <mxCell id="iL5BSdvAr6qhL1e1kEn7-15" value="&lt;span style=&quot;font-size: 15px;&quot;&gt;Popup background used to hold content&lt;/span&gt;" style="text;html=1;align=center;verticalAlign=middle;resizable=0;points=[];autosize=1;strokeColor=none;fillColor=none;" vertex="1" parent="1">
          <mxGeometry x="550" y="-640" width="290" height="30" as="geometry" />
        </mxCell>
        <mxCell id="iL5BSdvAr6qhL1e1kEn7-18" style="edgeStyle=orthogonalEdgeStyle;rounded=0;orthogonalLoop=1;jettySize=auto;html=1;strokeColor=default;strokeWidth=3;align=center;verticalAlign=middle;fontFamily=Helvetica;fontSize=12;fontColor=default;labelBackgroundColor=default;autosize=1;resizable=0;endArrow=classic;" edge="1" parent="1" source="iL5BSdvAr6qhL1e1kEn7-17">
          <mxGeometry relative="1" as="geometry">
            <mxPoint x="684.5" y="-191.75" as="targetPoint" />
          </mxGeometry>
        </mxCell>
        <mxCell id="iL5BSdvAr6qhL1e1kEn7-17" value="&lt;span style=&quot;font-size: 15px;&quot;&gt;Darkened background that still allows &lt;br&gt;user to see page content&amp;nbsp;&lt;/span&gt;" style="text;html=1;align=center;verticalAlign=middle;resizable=0;points=[];autosize=1;strokeColor=none;fillColor=none;" vertex="1" parent="1">
          <mxGeometry x="550" y="-80" width="270" height="50" as="geometry" />
        </mxCell>
        <mxCell id="iL5BSdvAr6qhL1e1kEn7-20" style="edgeStyle=orthogonalEdgeStyle;rounded=0;orthogonalLoop=1;jettySize=auto;html=1;strokeColor=default;strokeWidth=3;align=center;verticalAlign=middle;fontFamily=Helvetica;fontSize=12;fontColor=default;labelBackgroundColor=default;autosize=1;resizable=0;endArrow=classic;" edge="1" parent="1" source="iL5BSdvAr6qhL1e1kEn7-19">
          <mxGeometry relative="1" as="geometry">
            <mxPoint x="394.5" y="-338" as="targetPoint" />
          </mxGeometry>
        </mxCell>
        <mxCell id="iL5BSdvAr6qhL1e1kEn7-19" value="&lt;span style=&quot;font-size: 15px;&quot;&gt;Button that closes the popup&amp;nbsp;&lt;/span&gt;&lt;div&gt;&lt;span style=&quot;font-size: 15px;&quot;&gt;and activates all cookies, will be in blue&amp;nbsp;&lt;/span&gt;&lt;/div&gt;&lt;div&gt;&lt;span style=&quot;font-size: 15px;&quot;&gt;to match the project&lt;/span&gt;&lt;/div&gt;" style="text;html=1;align=center;verticalAlign=middle;resizable=0;points=[];autosize=1;strokeColor=none;fillColor=none;" vertex="1" parent="1">
          <mxGeometry x="250" y="-140" width="290" height="70" as="geometry" />
        </mxCell>
        <mxCell id="iL5BSdvAr6qhL1e1kEn7-22" style="edgeStyle=orthogonalEdgeStyle;rounded=0;orthogonalLoop=1;jettySize=auto;html=1;strokeColor=default;strokeWidth=3;align=center;verticalAlign=middle;fontFamily=Helvetica;fontSize=12;fontColor=default;labelBackgroundColor=default;autosize=1;resizable=0;endArrow=classic;" edge="1" parent="1" source="iL5BSdvAr6qhL1e1kEn7-21">
          <mxGeometry relative="1" as="geometry">
            <mxPoint x="248.25" y="-379.25" as="targetPoint" />
          </mxGeometry>
        </mxCell>
        <mxCell id="iL5BSdvAr6qhL1e1kEn7-21" value="&lt;span style=&quot;font-size: 15px;&quot;&gt;Text explaining why the&lt;/span&gt;&lt;div&gt;&lt;span style=&quot;font-size: 15px;&quot;&gt;&amp;nbsp;project needs the cookies&lt;/span&gt;&lt;/div&gt;" style="text;html=1;align=center;verticalAlign=middle;resizable=0;points=[];autosize=1;strokeColor=none;fillColor=none;" vertex="1" parent="1">
          <mxGeometry x="-225" y="-404" width="200" height="50" as="geometry" />
        </mxCell>
        <mxCell id="iL5BSdvAr6qhL1e1kEn7-24" style="edgeStyle=orthogonalEdgeStyle;rounded=0;orthogonalLoop=1;jettySize=auto;html=1;strokeColor=default;strokeWidth=3;align=center;verticalAlign=middle;fontFamily=Helvetica;fontSize=12;fontColor=default;labelBackgroundColor=default;autosize=1;resizable=0;endArrow=classic;" edge="1" parent="1" source="iL5BSdvAr6qhL1e1kEn7-23">
          <mxGeometry relative="1" as="geometry">
            <mxPoint x="298.25" y="-436.75" as="targetPoint" />
          </mxGeometry>
        </mxCell>
        <mxCell id="iL5BSdvAr6qhL1e1kEn7-23" value="&lt;span style=&quot;font-size: 15px;&quot;&gt;greeting title&lt;/span&gt;" style="text;html=1;align=center;verticalAlign=middle;resizable=0;points=[];autosize=1;strokeColor=none;fillColor=none;" vertex="1" parent="1">
          <mxGeometry x="-155" y="-540" width="110" height="30" as="geometry" />
        </mxCell>
      </root>
    </mxGraphModel>
  </diagram>
</mxfile>
